Units are S.I. units (second, meters, Newtons, ...)
Angles are in degrees.
name walk
datarows 57
datacolumns 22
range 0.00000 56.00000
endheader
time Pelvis_Z Pelvis_X Pelvis_Y FemurR_Z FemurR_X FemurR_Y TibiaR_Z TibiaR_X TibiaR_Y TalusR_Z TalusR_X TalusR_Y FemurL_Z FemurL_X FemurL_Y TibiaL_Z TibiaL_X TibiaL_Y TalusL_Z TalusL_X TalusL_Y
0.00000 15.53840 -0.00588 -0.23075 36.23450 -1.76875 -1.09705 0.27320 -0.17529 -22.47300 -0.06724 0.99313 6.73802 -1.54539 2.08086 -11.18010 5.21088 1.31190 -2.52182 5.76408 3.18767 10.83650
1.00000 15.53735 0.00916 -0.21896 36.52880 -1.66811 -0.96792 2.16692 0.05789 -22.47490 -0.05436 0.90612 6.21508 -1.83567 1.65111 -11.32380 6.29480 1.19138 -2.14040 5.23768 3.83188 11.20350
2.00000 15.52105 0.03765 -0.23537 36.79750 -1.47609 -0.65775 4.22773 0.34961 -22.55580 -0.65271 0.72565 5.61064 -2.09780 1.18037 -11.54750 7.53174 1.05217 -1.78685 4.57951 4.45810 11.66110
3.00000 15.50780 0.08208 -0.28874 36.95700 -1.19545 -0.14918 5.98668 0.66763 -22.83070 -1.93492 0.54693 5.06800 -2.29264 0.67515 -11.81020 8.94775 0.88149 -1.55730 3.74361 5.03009 12.24440
4.00000 15.52700 0.13591 -0.37910 37.00950 -0.85008 0.55034 7.32151 0.99913 -23.22950 -3.51226 0.39214 4.67473 -2.34278 0.14599 -12.03010 10.57920 0.67123 -1.58897 2.66172 5.48385 12.98260
5.00000 15.59290 0.18079 -0.49437 37.03930 -0.48597 1.36386 8.55762 1.39308 -23.39520 -4.75606 0.10539 4.32628 -2.16081 -0.39106 -12.12270 12.47510 0.42525 -2.01957 1.25774 5.73442 13.88580
6.00000 15.68665 0.19967 -0.61443 37.15440 -0.13384 2.12441 10.13030 1.89711 -22.92200 -5.22400 -0.57756 3.79768 -1.69235 -0.91265 -12.05210 14.69330 0.16067 -2.91944 -0.52039 5.68793 14.93010
7.00000 15.75985 0.18990 -0.71758 37.37090 0.22006 2.63909 12.13580 2.44461 -21.68450 -4.86193 -1.68595 2.94421 -0.94356 -1.40099 -11.85400 17.28760 -0.09904 -4.22572 -2.66369 5.26489 16.03850
8.00000 15.75275 0.16011 -0.78703 37.54230 0.61316 2.76692 14.26430 2.86342 -19.90880 -3.98147 -2.92190 1.83693 0.03224 -1.86063 -11.60400 20.29980 -0.33573 -5.71700 -5.06071 4.44019 17.05540
9.00000 15.61965 0.11901 -0.81517 37.43520 1.06101 2.45824 16.10280 3.02391 -18.02000 -2.92958 -3.97201 0.79957 1.17229 -2.31943 -11.37180 23.75910 -0.54113 -7.05351 -7.47449 3.27308 17.74010
10.00000 15.35085 0.06983 -0.80447 36.87620 1.53942 1.77983 17.37110 2.93409 -16.41170 -1.87745 -4.70207 0.18183 2.43453 -2.80775 -11.19750 27.65850 -0.72006 -7.89970 -9.62704 1.88543 17.83180
11.00000 14.98410 0.01243 -0.76385 35.84110 2.00533 0.91202 17.96730 2.70238 -15.29540 -0.89911 -5.14097 0.09410 3.81113 -3.33226 -11.07790 31.91610 -0.89490 -8.09405 -11.39070 0.44000 17.17090
12.00000 14.59400 -0.05058 -0.70338 34.44870 2.41763 0.06137 17.95400 2.45282 -14.72020 -0.03031 -5.37586 0.44113 5.32298 -3.86344 -10.96070 36.37250 -1.08891 -7.72332 -12.83380 -0.81564 15.79760
13.00000 14.26240 -0.10978 -0.63203 32.90140 2.74759 -0.66543 17.51260 2.25494 -14.62280 0.73205 -5.47688 1.08257 6.99738 -4.34125 -10.75980 40.83630 -1.29413 -7.04817 -13.98510 -1.63879 13.96520
14.00000 14.04640 -0.15386 -0.55940 31.39810 2.98178 -1.28937 16.85930 2.10815 -14.85360 1.41050 -5.48578 1.89625 8.84131 -4.69398 -10.38740 45.13430 -1.46478 -6.38341 -14.67460 -2.01036 12.05580
15.00000 13.96295 -0.17595 -0.49677 30.06310 3.11274 -1.89808 16.16960 1.97832 -15.20100 2.02733 -5.42065 2.75921 10.82930 -4.85830 -9.78184 49.13700 -1.53737 -5.99797 -14.68610 -2.16485 10.42660
16.00000 13.99715 -0.17361 -0.45410 28.92650 3.13539 -2.57045 15.54260 1.83952 -15.43550 2.59754 -5.29503 3.53464 12.91200 -4.79324 -8.92637 52.75100 -1.45217 -6.05672 -13.99320 -2.35439 9.28944
17.00000 14.11940 -0.14763 -0.43717 27.94550 3.05772 -3.32149 14.99950 1.69035 -15.36840 3.12687 -5.13417 4.08453 15.03530 -4.49313 -7.84724 55.90760 -1.16332 -6.61749 -12.80190 -2.67141 8.69693
18.00000 14.29700 -0.10083 -0.44535 27.04970 2.91093 -4.11268 14.51400 1.54007 -14.91020 3.61549 -4.96381 4.32225 17.14790 -3.99205 -6.61116 58.56590 -0.65372 -7.64597 -11.39980 -3.09505 8.60103
19.00000 14.49660 -0.03752 -0.47104 26.17660 2.74436 -4.89463 14.04650 1.39104 -14.10080 4.06291 -4.79744 4.26684 19.19890 -3.35478 -5.31970 60.72400 0.05241 -9.01802 -9.99642 -3.55071 8.88039
20.00000 14.68395 0.03365 -0.50280 25.27930 2.60346 -5.62320 13.55960 1.23965 -13.09710 4.46915 -4.63894 4.04400 21.14180 -2.66008 -4.08754 62.41820 0.89503 -10.53400 -8.67367 -3.95071 9.34871
21.00000 14.82585 0.10025 -0.52898 24.32180 2.50812 -6.28734 13.02430 1.07926 -12.08230 4.83539 -4.48482 3.82686 22.94150 -1.97789 -3.01550 63.70410 1.79702 -11.97190 -7.42320 -4.26497 9.80511
22.00000 14.89315 0.15187 -0.53970 23.27650 2.44887 -6.92611 12.42510 0.90045 -11.16590 5.16271 -4.32743 3.75624 24.57520 -1.35246 -2.18381 64.63160 2.67470 -13.15650 -6.21298 -4.52166 10.10950
23.00000 14.86780 0.18431 -0.52992 22.13180 2.40295 -7.60212 11.76410 0.69705 -10.34670 5.45338 -4.16289 3.87782 26.03320 -0.80261 -1.63608 65.23300 3.45759 -13.99890 -5.02928 -4.75240 10.20850
24.00000 14.75040 0.19999 -0.50086 20.89800 2.35311 -8.35291 11.05840 0.47537 -9.54673 5.71381 -3.99546 4.13054 27.32350 -0.33018 -1.35482 65.52490 4.11771 -14.50880 -3.87862 -4.95942 10.12160
25.00000 14.56265 0.20324 -0.45890 19.60770 2.29122 -9.16823 10.33620 0.25324 -8.67895 5.95533 -3.83037 4.40367 28.47400 0.06952 -1.26056 65.51250 4.68723 -14.76350 -2.77063 -5.11565 9.90537
26.00000 14.34230 0.19693 -0.41300 18.30840 2.21271 -10.00260 9.62968 0.05077 -7.71226 6.19217 -3.66385 4.61881 29.52840 0.40180 -1.24251 65.19240 5.24071 -14.86280 -1.70785 -5.19078 9.61364
27.00000 14.13345 0.18372 -0.37024 17.04710 2.11656 -10.79190 8.96115 -0.11799 -6.68870 6.43347 -3.48306 4.75093 30.53520 0.67071 -1.19666 64.55530 5.85553 -14.90910 -0.68976 -5.17287 9.28727
28.00000 13.97380 0.16575 -0.33374 15.85330 2.00677 -11.47890 8.33338 -0.24624 -5.69602 6.67875 -3.27587 4.81880 31.53640 0.87899 -1.04437 63.58960 6.58422 -15.00110 0.27850 -5.07089 8.95889
29.00000 13.88750 0.14527 -0.30368 14.73900 1.89049 -12.02940 7.73597 -0.32913 -4.83302 6.92005 -3.04738 4.87240 32.55620 1.02990 -0.74388 62.28690 7.43798 -15.21970 1.18394 -4.92154 8.64932
30.00000 13.88185 0.12532 -0.27736 13.70610 1.77474 -12.43450 7.16056 -0.36411 -4.16437 7.15101 -2.81548 4.95476 33.59180 1.12900 -0.30155 60.64230 8.38228 -15.61130 2.01135 -4.78725 8.35914
31.00000 13.94920 0.10825 -0.25039 12.74770 1.66044 -12.71160 6.61123 -0.35400 -3.68421 7.37244 -2.59556 5.07041 34.62110 1.18658 0.23384 58.65180 9.34898 -16.19110 2.74971 -4.71647 8.07117
32.00000 14.07380 0.09508 -0.22002 11.85640 1.54637 -12.90040 6.10531 -0.30964 -3.33085 7.58949 -2.39374 5.19874 35.61300 1.21606 0.79842 56.31120 10.25680 -16.95050 3.40039 -4.71435 7.75951
33.00000 14.23915 0.08558 -0.18710 11.03060 1.43609 -13.03730 5.66582 -0.24690 -3.04087 7.80948 -2.20357 5.32090 36.53070 1.22766 1.34662 53.61140 11.03640 -17.86760 3.96841 -4.75581 7.39959
34.00000 14.43265 0.07969 -0.15416 10.26920 1.33834 -13.13960 5.30849 -0.17976 -2.76483 8.03698 -2.01464 5.41458 37.33880 1.22853 1.86362 50.53760 11.64200 -18.91880 4.43896 -4.80192 6.97792
35.00000 14.64710 0.07886 -0.12263 9.56827 1.26455 -13.22670 5.03530 -0.11910 -2.44829 8.27123 -1.83372 5.44730 38.01000 1.22734 2.34884 47.07950 12.03470 -20.07810 4.77375 -4.81791 6.50233
36.00000 14.87925 0.08506 -0.09412 8.92155 1.22399 -13.31100 4.83544 -0.07004 -2.06529 8.50424 -1.68429 5.40042 38.52330 1.23627 2.79543 43.24140 12.17050 -21.30600 4.92143 -4.80301 6.00313
37.00000 15.12505 0.09839 -0.07093 8.31829 1.21938 -13.39460 4.68816 -0.03178 -1.64267 8.71944 -1.56410 5.29679 38.85930 1.26896 3.17735 39.04440 11.99760 -22.54550 4.83579 -4.77260 5.52531
38.00000 15.37690 0.11787 -0.05491 7.74087 1.25073 -13.49260 4.56802 -0.00119 -1.23133 8.90010 -1.40911 5.19521 39.00220 1.33632 3.44879 34.52490 11.46900 -23.72740 4.50464 -4.73393 5.12671
39.00000 15.62195 0.14366 -0.04583 7.16363 1.31995 -13.64730 4.45503 0.02467 -0.85823 9.03423 -1.15336 5.15860 38.94520 1.44215 3.56519 29.73430 10.57150 -24.78450 3.96925 -4.69095 4.87881
40.00000 15.84330 0.17365 -0.04184 6.55741 1.42424 -13.89840 4.34363 0.04799 -0.52280 9.11471 -0.77766 5.22916 38.69220 1.57995 3.50631 24.74660 9.34209 -25.66070 3.31055 -4.65131 4.85865
41.00000 16.02335 0.19993 -0.04182 5.90125 1.54629 -14.23750 4.24694 0.07070 -0.22337 9.14058 -0.29034 5.41080 38.26170 1.73621 3.28252 19.67090 7.86062 -26.30330 2.60998 -4.60474 5.11097
42.00000 16.14775 0.21412 -0.04500 5.18834 1.66096 -14.62380 4.19608 0.08977 0.05184 9.11548 0.28782 5.67264 37.68980 1.89729 2.92706 14.65500 6.23176 -26.64450 1.92212 -4.51419 5.58933
43.00000 16.21150 0.21248 -0.04994 4.43067 1.74607 -15.01240 4.23192 0.09363 0.32408 9.04782 0.91973 5.97275 37.02990 2.05184 2.48085 9.87254 4.57367 -26.59840 1.28007 -4.35465 6.13960
44.00000 16.21980 0.19546 -0.05494 3.65725 1.78513 -15.35900 4.39358 0.06621 0.60390 8.94832 1.56749 6.27714 36.34530 2.18546 1.98769 5.50021 3.01640 -26.13030 0.71754 -4.16370 6.57444
45.00000 16.18620 0.16573 -0.05859 2.90408 1.76555 -15.62260 4.70831 -0.00522 0.88662 8.81964 2.21847 6.56640 35.70410 2.28049 1.49294 1.71484 1.68859 -25.34900 0.27924 -4.01689 6.78691
46.00000 16.13045 0.12789 -0.05996 2.20857 1.68005 -15.77790 5.18908 -0.12716 1.15924 8.65373 2.88344 6.83891 35.18160 2.32788 1.03743 -1.29237 0.68495 -24.50260 0.01184 -3.93725 6.79819
47.00000 16.07325 0.08852 -0.05741 1.59931 1.52950 -15.82930 5.83439 -0.30066 1.40815 8.43417 3.57798 7.10868 34.84560 2.33539 0.65813 -3.33179 0.04875 -23.84290 -0.05012 -3.88619 6.69443
48.00000 16.02675 0.05404 -0.04828 1.08589 1.31839 -15.81310 6.63223 -0.52152 1.63148 8.14212 4.30617 7.39555 34.73250 2.32575 0.39173 -4.26667 -0.22634 -23.47540 0.09881 -3.83796 6.53635
49.00000 15.98615 0.02906 -0.03044 0.65348 1.04965 -15.78820 7.57014 -0.78263 1.84735 7.76228 5.05709 7.71547 34.82570 2.32773 0.26758 -4.08192 -0.18518 -23.32640 0.40834 -3.82293 6.33299
50.00000 16.05315 0.04602 0.07695 0.26730 0.72641 -15.82350 8.64408 -1.08063 2.08375 7.27844 5.81494 8.08184 36.00960 2.15919 0.67436 -2.34641 0.24728 -23.30330 0.62308 -2.85454 5.98673
51.00000 15.96330 0.04275 0.07906 -0.10003 0.35273 -15.97120 9.86207 -1.42050 2.34274 6.66486 6.56190 8.51990 36.30970 2.24592 0.94400 -0.22096 0.80996 -23.15180 0.74941 -3.20399 5.70506
52.00000 15.82040 0.04560 0.07870 -0.43445 -0.07233 -16.22120 11.24230 -1.81400 2.55116 5.87415 7.27374 9.08204 36.38280 2.42259 1.34114 1.79931 1.37324 -23.10190 0.34343 -3.65934 5.42150
53.00000 15.65580 0.05513 0.07219 -0.67134 -0.54897 -16.49540 12.81080 -2.27673 2.57041 4.83138 7.91165 9.82794 36.19430 2.69502 1.83316 3.34071 1.83562 -23.20180 -0.73064 -4.14870 5.08606
54.00000 15.52335 0.07143 0.05671 -0.71440 -1.05984 -16.69190 14.60870 -2.81689 2.26145 3.45289 8.41359 10.77510 35.83890 3.03669 2.38601 4.40429 2.17473 -23.26520 -2.17881 -4.53217 4.55640
55.00000 15.46500 0.09143 0.03276 -0.47377 -1.56529 -16.73310 16.70020 -3.41751 1.52578 1.68013 8.70193 11.88320 35.51050 3.38511 2.92910 5.44246 2.50745 -22.93850 -3.42590 -4.73916 3.71367
56.00000 15.47230 0.11132 0.00429 0.08281 -2.01722 -16.61240 19.15400 -4.03772 0.32218 -0.50240 8.69127 13.10340 35.39210 3.68469 3.33345 6.95031 2.97695 -22.04920 -4.04689 -4.89845 2.66389
